<mxfile host="65bd71144e">
    <diagram id="23iRSUPoRavnBvh4doch" name="Page-1">
        <mxGraphModel dx="938" dy="765" grid="1" gridSize="10" guides="1" tooltips="1" connect="1" arrows="1" fold="1" page="1" pageScale="1" pageWidth="827" pageHeight="1169" math="0" shadow="0">
            <root>
                <mxCell id="0"/>
                <mxCell id="1" parent="0"/>
                <mxCell id="4" value="Saksbehandlingsflate" style="rounded=1;whiteSpace=wrap;html=1;strokeColor=#2D7600;fontColor=#000000;fillColor=#60a917;sketch=1;curveFitting=1;jiggle=2;strokeWidth=2;fontFamily=Comic Sans MS;fillStyle=auto;fontStyle=1" parent="1" vertex="1">
                    <mxGeometry x="80" y="80" width="170" height="40" as="geometry"/>
                </mxCell>
                <mxCell id="5" value="Innbyggerflate" style="rounded=1;whiteSpace=wrap;html=1;strokeColor=#2D7600;fontColor=#000000;fillColor=#60a917;sketch=1;curveFitting=1;jiggle=2;strokeWidth=2;fontFamily=Comic Sans MS;fillStyle=auto;fontStyle=1" parent="1" vertex="1">
                    <mxGeometry x="270" y="80" width="170" height="40" as="geometry"/>
                </mxCell>
                <mxCell id="6" value="Reberegningstjeneste" style="rounded=1;whiteSpace=wrap;html=1;strokeColor=#2D7600;fontColor=#000000;fillColor=#60a917;sketch=1;curveFitting=1;jiggle=2;strokeWidth=2;fontFamily=Comic Sans MS;fillStyle=auto;fontStyle=1" parent="1" vertex="1">
                    <mxGeometry x="460" y="80" width="170" height="40" as="geometry"/>
                </mxCell>
                <mxCell id="9" value="Tjeneste X" style="rounded=1;whiteSpace=wrap;html=1;strokeColor=#2D7600;fontColor=#000000;fillColor=#60a917;sketch=1;curveFitting=1;jiggle=2;strokeWidth=2;fontFamily=Comic Sans MS;fillStyle=auto;fontStyle=1" parent="1" vertex="1">
                    <mxGeometry x="650" y="80" width="170" height="40" as="geometry"/>
                </mxCell>
                <mxCell id="10" value="Datadeling" style="rounded=1;whiteSpace=wrap;html=1;strokeColor=#2D7600;fontColor=#000000;fillColor=#60a917;sketch=1;curveFitting=1;jiggle=2;strokeWidth=2;fontFamily=Comic Sans MS;fillStyle=auto;fontStyle=1" parent="1" vertex="1">
                    <mxGeometry x="840" y="80" width="170" height="40" as="geometry"/>
                </mxCell>
                <mxCell id="25" style="edgeStyle=orthogonalEdgeStyle;rounded=0;orthogonalLoop=1;jettySize=auto;html=1;entryX=0.5;entryY=1;entryDx=0;entryDy=0;curved=1;exitX=0.5;exitY=0;exitDx=0;exitDy=0;exitPerimeter=0;sketch=1;curveFitting=1;jiggle=2;strokeWidth=2;fontFamily=Comic Sans MS;fontColor=#000000;fontStyle=1" parent="1" source="11" target="4" edge="1">
                    <mxGeometry relative="1" as="geometry"/>
                </mxCell>
                <mxCell id="11" value="Aggregering" style="shape=cylinder3;whiteSpace=wrap;html=1;boundedLbl=1;backgroundOutline=1;size=15;strokeColor=#006EAF;fontColor=#000000;fillColor=#1ba1e2;sketch=1;curveFitting=1;jiggle=2;strokeWidth=2;fontFamily=Comic Sans MS;fontStyle=1" parent="1" vertex="1">
                    <mxGeometry x="280" y="240" width="90" height="80" as="geometry"/>
                </mxCell>
                <mxCell id="30" style="edgeStyle=orthogonalEdgeStyle;curved=1;rounded=0;orthogonalLoop=1;jettySize=auto;html=1;entryX=0.5;entryY=1;entryDx=0;entryDy=0;entryPerimeter=0;exitX=0.5;exitY=0;exitDx=0;exitDy=0;exitPerimeter=0;sketch=1;curveFitting=1;jiggle=2;strokeWidth=2;fontFamily=Comic Sans MS;fontColor=#000000;fontStyle=1" parent="1" source="13" target="11" edge="1">
                    <mxGeometry relative="1" as="geometry"/>
                </mxCell>
                <mxCell id="31" style="edgeStyle=orthogonalEdgeStyle;curved=1;rounded=0;orthogonalLoop=1;jettySize=auto;html=1;entryX=0.5;entryY=1;entryDx=0;entryDy=0;entryPerimeter=0;sketch=1;curveFitting=1;jiggle=2;strokeWidth=2;fontFamily=Comic Sans MS;fontColor=#000000;fontStyle=1" parent="1" source="13" target="21" edge="1">
                    <mxGeometry relative="1" as="geometry"/>
                </mxCell>
                <mxCell id="32" style="edgeStyle=orthogonalEdgeStyle;curved=1;rounded=0;orthogonalLoop=1;jettySize=auto;html=1;entryX=0.5;entryY=1;entryDx=0;entryDy=0;entryPerimeter=0;sketch=1;curveFitting=1;jiggle=2;strokeWidth=2;fontFamily=Comic Sans MS;fontColor=#000000;fontStyle=1" parent="1" source="13" target="22" edge="1">
                    <mxGeometry relative="1" as="geometry"/>
                </mxCell>
                <mxCell id="33" style="edgeStyle=orthogonalEdgeStyle;curved=1;rounded=0;orthogonalLoop=1;jettySize=auto;html=1;entryX=0.5;entryY=1;entryDx=0;entryDy=0;entryPerimeter=0;sketch=1;curveFitting=1;jiggle=2;strokeWidth=2;fontFamily=Comic Sans MS;fontColor=#000000;fontStyle=1" parent="1" source="13" target="23" edge="1">
                    <mxGeometry relative="1" as="geometry"/>
                </mxCell>
                <mxCell id="34" style="edgeStyle=orthogonalEdgeStyle;curved=1;rounded=0;orthogonalLoop=1;jettySize=auto;html=1;entryX=0.5;entryY=1;entryDx=0;entryDy=0;entryPerimeter=0;exitX=0.5;exitY=0;exitDx=0;exitDy=0;exitPerimeter=0;sketch=1;curveFitting=1;jiggle=2;strokeWidth=2;fontFamily=Comic Sans MS;fontColor=#000000;fontStyle=1" parent="1" source="13" target="24" edge="1">
                    <mxGeometry relative="1" as="geometry"/>
                </mxCell>
                <mxCell id="13" value="Registrering" style="shape=cylinder3;whiteSpace=wrap;html=1;boundedLbl=1;backgroundOutline=1;size=15;strokeColor=#6F0000;fontColor=#000000;fillColor=#a20025;sketch=1;curveFitting=1;jiggle=2;strokeWidth=2;fontFamily=Comic Sans MS;fontStyle=1" parent="1" vertex="1">
                    <mxGeometry x="475" y="430" width="140" height="130" as="geometry"/>
                </mxCell>
                <mxCell id="26" style="edgeStyle=orthogonalEdgeStyle;curved=1;rounded=0;orthogonalLoop=1;jettySize=auto;html=1;entryX=0.5;entryY=1;entryDx=0;entryDy=0;sketch=1;curveFitting=1;jiggle=2;strokeWidth=2;fontFamily=Comic Sans MS;fontColor=#000000;fontStyle=1" parent="1" source="21" target="5" edge="1">
                    <mxGeometry relative="1" as="geometry"/>
                </mxCell>
                <mxCell id="21" value="Aggregering" style="shape=cylinder3;whiteSpace=wrap;html=1;boundedLbl=1;backgroundOutline=1;size=15;strokeColor=#006EAF;fontColor=#000000;fillColor=#1ba1e2;sketch=1;curveFitting=1;jiggle=2;strokeWidth=2;fontFamily=Comic Sans MS;fontStyle=1" parent="1" vertex="1">
                    <mxGeometry x="390" y="240" width="90" height="80" as="geometry"/>
                </mxCell>
                <mxCell id="27" style="edgeStyle=orthogonalEdgeStyle;curved=1;rounded=0;orthogonalLoop=1;jettySize=auto;html=1;entryX=0.5;entryY=1;entryDx=0;entryDy=0;sketch=1;curveFitting=1;jiggle=2;strokeWidth=2;fontFamily=Comic Sans MS;fontColor=#000000;fontStyle=1" parent="1" source="22" target="6" edge="1">
                    <mxGeometry relative="1" as="geometry"/>
                </mxCell>
                <mxCell id="22" value="Aggregering" style="shape=cylinder3;whiteSpace=wrap;html=1;boundedLbl=1;backgroundOutline=1;size=15;strokeColor=#006EAF;fontColor=#000000;fillColor=#1ba1e2;sketch=1;curveFitting=1;jiggle=2;strokeWidth=2;fontFamily=Comic Sans MS;fontStyle=1" parent="1" vertex="1">
                    <mxGeometry x="500" y="240" width="90" height="80" as="geometry"/>
                </mxCell>
                <mxCell id="28" style="edgeStyle=orthogonalEdgeStyle;curved=1;rounded=0;orthogonalLoop=1;jettySize=auto;html=1;entryX=0.5;entryY=1;entryDx=0;entryDy=0;sketch=1;curveFitting=1;jiggle=2;strokeWidth=2;fontFamily=Comic Sans MS;fontColor=#000000;fontStyle=1" parent="1" source="23" target="9" edge="1">
                    <mxGeometry relative="1" as="geometry"/>
                </mxCell>
                <mxCell id="23" value="Aggregering" style="shape=cylinder3;whiteSpace=wrap;html=1;boundedLbl=1;backgroundOutline=1;size=15;strokeColor=#006EAF;fontColor=#000000;fillColor=#1ba1e2;sketch=1;curveFitting=1;jiggle=2;strokeWidth=2;fontFamily=Comic Sans MS;fontStyle=1" parent="1" vertex="1">
                    <mxGeometry x="610" y="240" width="90" height="80" as="geometry"/>
                </mxCell>
                <mxCell id="29" style="edgeStyle=orthogonalEdgeStyle;curved=1;rounded=0;orthogonalLoop=1;jettySize=auto;html=1;entryX=0.5;entryY=1;entryDx=0;entryDy=0;exitX=0.5;exitY=0;exitDx=0;exitDy=0;exitPerimeter=0;sketch=1;curveFitting=1;jiggle=2;strokeWidth=2;fontFamily=Comic Sans MS;fontColor=#000000;fontStyle=1" parent="1" source="24" target="10" edge="1">
                    <mxGeometry relative="1" as="geometry"/>
                </mxCell>
                <mxCell id="24" value="Aggregering" style="shape=cylinder3;whiteSpace=wrap;html=1;boundedLbl=1;backgroundOutline=1;size=15;strokeColor=#006EAF;fontColor=#000000;fillColor=#1ba1e2;sketch=1;curveFitting=1;jiggle=2;strokeWidth=2;fontFamily=Comic Sans MS;fontStyle=1" parent="1" vertex="1">
                    <mxGeometry x="720" y="240" width="90" height="80" as="geometry"/>
                </mxCell>
                <mxCell id="40" style="edgeStyle=orthogonalEdgeStyle;curved=1;rounded=0;orthogonalLoop=1;jettySize=auto;html=1;entryX=0.5;entryY=1;entryDx=0;entryDy=0;entryPerimeter=0;exitX=0.5;exitY=0;exitDx=0;exitDy=0;sketch=1;curveFitting=1;jiggle=2;strokeWidth=2;fontFamily=Comic Sans MS;fontColor=#000000;fontStyle=1" parent="1" source="36" target="13" edge="1">
                    <mxGeometry relative="1" as="geometry"/>
                </mxCell>
                <mxCell id="36" value="Innbyggerhendelser" style="rounded=1;whiteSpace=wrap;html=1;strokeColor=#36393d;fillColor=#ffcc99;sketch=1;curveFitting=1;jiggle=2;strokeWidth=2;fontFamily=Comic Sans MS;fontColor=#000000;fontStyle=1" parent="1" vertex="1">
                    <mxGeometry x="270" y="630" width="170" height="40" as="geometry"/>
                </mxCell>
                <mxCell id="42" style="edgeStyle=orthogonalEdgeStyle;curved=1;rounded=0;orthogonalLoop=1;jettySize=auto;html=1;entryX=0.5;entryY=1;entryDx=0;entryDy=0;entryPerimeter=0;sketch=1;curveFitting=1;jiggle=2;strokeWidth=2;fontFamily=Comic Sans MS;fontColor=#000000;fontStyle=1" parent="1" source="38" target="13" edge="1">
                    <mxGeometry relative="1" as="geometry">
                        <mxPoint x="545" y="580" as="targetPoint"/>
                    </mxGeometry>
                </mxCell>
                <mxCell id="38" value="Saksbehandlingerhendelser&lt;br&gt;(manuelt)" style="rounded=1;whiteSpace=wrap;html=1;strokeColor=#36393d;fillColor=#ffcc99;sketch=1;curveFitting=1;jiggle=2;strokeWidth=2;fontFamily=Comic Sans MS;fontColor=#000000;fontStyle=1" parent="1" vertex="1">
                    <mxGeometry x="460" y="630" width="170" height="40" as="geometry"/>
                </mxCell>
                <mxCell id="43" style="edgeStyle=orthogonalEdgeStyle;curved=1;rounded=0;orthogonalLoop=1;jettySize=auto;html=1;exitX=0.5;exitY=0;exitDx=0;exitDy=0;entryX=0.5;entryY=1;entryDx=0;entryDy=0;entryPerimeter=0;sketch=1;curveFitting=1;jiggle=2;strokeWidth=2;fontFamily=Comic Sans MS;fontColor=#000000;fontStyle=1" parent="1" source="39" target="13" edge="1">
                    <mxGeometry relative="1" as="geometry">
                        <mxPoint x="545" y="580" as="targetPoint"/>
                    </mxGeometry>
                </mxCell>
                <mxCell id="39" value="Saksbehandlingerhendelser&lt;br&gt;(automatisk)" style="rounded=1;whiteSpace=wrap;html=1;strokeColor=#36393d;fillColor=#ffcc99;sketch=1;curveFitting=1;jiggle=2;strokeWidth=2;fontFamily=Comic Sans MS;fontColor=#000000;fontStyle=1" parent="1" vertex="1">
                    <mxGeometry x="650" y="630" width="170" height="40" as="geometry"/>
                </mxCell>
            </root>
        </mxGraphModel>
    </diagram>
</mxfile>